<svg width="64" height="64" viewBox="0 0 64 64" fill="none" xmlns="http://www.w3.org/2000/svg">
<rect width="64" height="64" rx="4" fill="#E7D7C6"/>
<path d="M18.84 43C18.2747 43 17.992 42.7173 17.992 42.152V23.224C17.992 22.6587 18.2747 22.376 18.84 22.376H30.376C30.6427 22.376 30.8453 22.4507 30.984 22.6C31.1333 22.7387 31.208 22.9467 31.208 23.224C31.208 23.7787 30.9307 24.056 30.376 24.056H19.672V31.72H26.968C27.5333 31.72 27.816 31.9973 27.816 32.552C27.816 33.1173 27.5333 33.4 26.968 33.4H19.672V42.152C19.672 42.7173 19.3947 43 18.84 43ZM35.0588 43C34.4934 43 34.2108 42.7173 34.2108 42.152V23.224C34.2108 22.6587 34.4934 22.376 35.0588 22.376H47.0428C47.6081 22.376 47.8908 22.6587 47.8908 23.224C47.8908 23.7787 47.6081 24.056 47.0428 24.056H35.8908V31.72H43.2668C43.8321 31.72 44.1148 31.9973 44.1148 32.552C44.1148 33.1173 43.8321 33.4 43.2668 33.4H35.8908V41.32H47.0428C47.6081 41.32 47.8908 41.5973 47.8908 42.152C47.8908 42.7173 47.6081 43 47.0428 43H35.0588Z" fill="#AF5F30"/>
</svg>
