<svg width="34" height="11" viewBox="0 0 34 11" fill="none" xmlns="http://www.w3.org/2000/svg">
<g id="&#60;FE/&#62;">
<path d="M1.812 5.88L6.9 3.768V3.144L0.78 5.736V6.084L6.9 8.676V8.052L1.812 5.88ZM25.9611 0.599999L20.9691 10.8H21.6051L26.5971 0.599999H25.9611ZM32.6453 5.94L27.5573 8.052V8.676L33.6773 6.084V5.736L27.5573 3.144V3.768L32.6453 5.94Z" fill="#0066B0"/>
<path d="M9.48778 1.872H13.2438V0.599999H9.48778V1.872ZM9.48778 5.208H13.1238V3.972H9.48778V5.208ZM8.61178 0.599999V9H10.0038V0.599999H8.61178ZM15.7456 9H19.9816V7.752H15.7456V9ZM15.7456 1.848H19.9816V0.599999H15.7456V1.848ZM15.7456 5.112H19.7416V3.888H15.7456V5.112ZM14.8696 0.599999V9H16.2616V0.599999H14.8696Z" fill="white"/>
</g>
</svg>
