<svg width="32" height="32" viewBox="0 0 32 32" fill="none" xmlns="http://www.w3.org/2000/svg">
<rect width="32" height="32" rx="4" fill="#E7D7C6"/>
<path d="M5.88 25C5.456 25 5.244 24.788 5.244 24.364V10.168C5.244 9.744 5.456 9.532 5.88 9.532H14.532C14.732 9.532 14.884 9.588 14.988 9.7C15.1 9.804 15.156 9.96 15.156 10.168C15.156 10.584 14.948 10.792 14.532 10.792H6.504V16.54H11.976C12.4 16.54 12.612 16.748 12.612 17.164C12.612 17.588 12.4 17.8 11.976 17.8H6.504V24.364C6.504 24.788 6.296 25 5.88 25ZM18.0441 25C17.6201 25 17.4081 24.788 17.4081 24.364V10.168C17.4081 9.744 17.6201 9.532 18.0441 9.532H27.0321C27.4561 9.532 27.6681 9.744 27.6681 10.168C27.6681 10.584 27.4561 10.792 27.0321 10.792H18.6681V16.54H24.2001C24.6241 16.54 24.8361 16.748 24.8361 17.164C24.8361 17.588 24.6241 17.8 24.2001 17.8H18.6681V23.74H27.0321C27.4561 23.74 27.6681 23.948 27.6681 24.364C27.6681 24.788 27.4561 25 27.0321 25H18.0441Z" fill="#AF5F30"/>
</svg>
